STARTFONT 2.1
FONT -sun-conga-bold-r-normal--8-80-75-75-p-56-adobe-fontspecific
SIZE 8 75 75
FONTBOUNDINGBOX 14 10 -2 -2

STARTPROPERTIES 28
FOUNDRY "sun"
FAMILY_NAME "conga"
WEIGHT_NAME "bold"
SLANT "r"
SETWIDTH_NAME "normal"
ADD_STYLE_NAME ""
PIXEL_SIZE 8
POINT_SIZE 80
RESOLUTION_X 75
RESOLUTION_Y 75
SPACING "p"
AVERAGE_WIDTH 56
CHARSET_REGISTRY "adobe"
CHARSET_ENCODING "fontspecific"
COPYRIGHT "© 1999 Sun Microsystems, Inc."
RAW_PIXELSIZE 1000
RAW_POINTSIZE 964
RAW_ASCENT 928
RAW_DESCENT 219
RAW_AVERAGE_WIDTH 6696
FACE_NAME "CongaBoldrg"
_XMBDFED_INFO "Edited with xmbdfed 2.4."
WEIGHT 10
X_HEIGHT 0
QUAD_WIDTH 5
DEFAULT_CHAR 4
FONT_DESCENT 2
FONT_ASCENT 8
ENDPROPERTIES

CHARS 203

STARTCHAR char32
ENCODING 32
SWIDTH 43 0
DWIDTH 4 0
BBX 0 0 0 0
BITMAP
ENDCHAR

STARTCHAR char33
ENCODING 33
SWIDTH 21 0
DWIDTH 2 0
BBX 2 6 0 0
BITMAP
40
C0
80
80
00
40
ENDCHAR

STARTCHAR char34
ENCODING 34
SWIDTH 32 0
DWIDTH 3 0
BBX 3 2 0 4
BITMAP
E0
60
ENDCHAR

STARTCHAR char35
ENCODING 35
SWIDTH 53 0
DWIDTH 5 0
BBX 4 6 0 0
BITMAP
30
F0
50
70
D0
50
ENDCHAR

STARTCHAR char36
ENCODING 36
SWIDTH 75 0
DWIDTH 7 0
BBX 6 8 0 -1
BITMAP
20
78
DC
F0
7C
9C
F8
10
ENDCHAR

STARTCHAR char37
ENCODING 37
SWIDTH 107 0
DWIDTH 10 0
BBX 11 6 -1 0
BITMAP
7100
DA00
DFC0
7E60
0E60
13C0
ENDCHAR

STARTCHAR char38
ENCODING 38
SWIDTH 86 0
DWIDTH 8 0
BBX 7 6 0 0
BITMAP
70
D8
74
DC
D8
76
ENDCHAR

STARTCHAR char39
ENCODING 39
SWIDTH 21 0
DWIDTH 2 0
BBX 2 2 0 5
BITMAP
40
C0
ENDCHAR

STARTCHAR char40
ENCODING 40
SWIDTH 32 0
DWIDTH 3 0
BBX 2 6 0 0
BITMAP
40
40
C0
C0
80
40
ENDCHAR

STARTCHAR char41
ENCODING 41
SWIDTH 32 0
DWIDTH 3 0
BBX 3 6 0 0
BITMAP
80
40
60
60
40
80
ENDCHAR

STARTCHAR char42
ENCODING 42
SWIDTH 43 0
DWIDTH 4 0
BBX 4 4 0 2
BITMAP
20
F0
60
60
ENDCHAR

STARTCHAR char43
ENCODING 43
SWIDTH 64 0
DWIDTH 6 0
BBX 5 5 0 0
BITMAP
30
30
F8
30
30
ENDCHAR

STARTCHAR char44
ENCODING 44
SWIDTH 21 0
DWIDTH 2 0
BBX 2 2 0 -1
BITMAP
C0
40
ENDCHAR

STARTCHAR char45
ENCODING 45
SWIDTH 32 0
DWIDTH 3 0
BBX 2 1 0 2
BITMAP
C0
ENDCHAR

STARTCHAR char46
ENCODING 46
SWIDTH 21 0
DWIDTH 2 0
BBX 2 1 0 0
BITMAP
C0
ENDCHAR

STARTCHAR char47
ENCODING 47
SWIDTH 64 0
DWIDTH 6 0
BBX 5 6 0 0
BITMAP
08
08
10
20
40
80
ENDCHAR

STARTCHAR char48
ENCODING 48
SWIDTH 75 0
DWIDTH 7 0
BBX 7 6 0 0
BITMAP
38
44
C6
C6
C4
78
ENDCHAR

STARTCHAR char49
ENCODING 49
SWIDTH 75 0
DWIDTH 7 0
BBX 3 6 2 0
BITMAP
60
A0
20
20
60
60
ENDCHAR

STARTCHAR char50
ENCODING 50
SWIDTH 75 0
DWIDTH 7 0
BBX 6 6 0 0
BITMAP
38
4C
0C
30
40
7C
ENDCHAR

STARTCHAR char51
ENCODING 51
SWIDTH 75 0
DWIDTH 7 0
BBX 6 6 0 0
BITMAP
38
4C
38
2C
4C
78
ENDCHAR

STARTCHAR char52
ENCODING 52
SWIDTH 75 0
DWIDTH 7 0
BBX 6 6 0 0
BITMAP
08
38
38
58
FC
0C
ENDCHAR

STARTCHAR char53
ENCODING 53
SWIDTH 75 0
DWIDTH 7 0
BBX 6 6 0 0
BITMAP
FC
C0
F8
2C
CC
78
ENDCHAR

STARTCHAR char54
ENCODING 54
SWIDTH 75 0
DWIDTH 7 0
BBX 6 6 0 0
BITMAP
7C
CC
F8
CC
CC
78
ENDCHAR

STARTCHAR char55
ENCODING 55
SWIDTH 75 0
DWIDTH 7 0
BBX 6 6 0 0
BITMAP
FC
08
08
10
30
70
ENDCHAR

STARTCHAR char56
ENCODING 56
SWIDTH 75 0
DWIDTH 7 0
BBX 6 6 0 0
BITMAP
78
C4
78
CC
CC
78
ENDCHAR

STARTCHAR char57
ENCODING 57
SWIDTH 75 0
DWIDTH 7 0
BBX 6 6 0 0
BITMAP
78
CC
CC
7C
4C
F8
ENDCHAR

STARTCHAR char58
ENCODING 58
SWIDTH 21 0
DWIDTH 2 0
BBX 2 4 0 0
BITMAP
C0
00
00
C0
ENDCHAR

STARTCHAR char59
ENCODING 59
SWIDTH 21 0
DWIDTH 2 0
BBX 2 5 0 -1
BITMAP
C0
00
00
C0
40
ENDCHAR

STARTCHAR char60
ENCODING 60
SWIDTH 53 0
DWIDTH 5 0
BBX 5 4 0 0
BITMAP
30
40
60
18
ENDCHAR

STARTCHAR char61
ENCODING 61
SWIDTH 64 0
DWIDTH 6 0
BBX 5 3 0 1
BITMAP
F8
00
F8
ENDCHAR

STARTCHAR char62
ENCODING 62
SWIDTH 53 0
DWIDTH 5 0
BBX 5 4 0 0
BITMAP
60
10
30
C0
ENDCHAR

STARTCHAR char63
ENCODING 63
SWIDTH 53 0
DWIDTH 5 0
BBX 5 6 0 0
BITMAP
78
58
30
60
00
70
ENDCHAR

STARTCHAR char64
ENCODING 64
SWIDTH 96 0
DWIDTH 9 0
BBX 7 6 1 0
BITMAP
38
7C
EE
EC
7C
38
ENDCHAR

STARTCHAR char65
ENCODING 65
SWIDTH 75 0
DWIDTH 7 0
BBX 7 6 0 0
BITMAP
38
30
28
78
84
C6
ENDCHAR

STARTCHAR char66
ENCODING 66
SWIDTH 75 0
DWIDTH 7 0
BBX 7 6 0 0
BITMAP
7C
C6
F8
C4
C6
FC
ENDCHAR

STARTCHAR char67
ENCODING 67
SWIDTH 86 0
DWIDTH 8 0
BBX 7 6 0 0
BITMAP
3C
42
C0
C0
C2
3C
ENDCHAR

STARTCHAR char68
ENCODING 68
SWIDTH 86 0
DWIDTH 8 0
BBX 7 6 0 0
BITMAP
FC
C6
C6
C6
C6
F8
ENDCHAR

STARTCHAR char69
ENCODING 69
SWIDTH 75 0
DWIDTH 7 0
BBX 6 6 0 0
BITMAP
FC
80
F8
C8
C0
FC
ENDCHAR

STARTCHAR char70
ENCODING 70
SWIDTH 75 0
DWIDTH 7 0
BBX 7 6 0 0
BITMAP
FE
80
F8
C8
C0
E0
ENDCHAR

STARTCHAR char71
ENCODING 71
SWIDTH 86 0
DWIDTH 8 0
BBX 7 6 0 0
BITMAP
3C
44
C0
DE
C6
3C
ENDCHAR

STARTCHAR char72
ENCODING 72
SWIDTH 86 0
DWIDTH 8 0
BBX 7 6 0 0
BITMAP
E6
86
FE
C6
C6
E6
ENDCHAR

STARTCHAR char73
ENCODING 73
SWIDTH 21 0
DWIDTH 2 0
BBX 3 6 0 0
BITMAP
E0
C0
C0
C0
C0
E0
ENDCHAR

STARTCHAR char74
ENCODING 74
SWIDTH 64 0
DWIDTH 6 0
BBX 6 6 0 0
BITMAP
1C
18
18
18
18
F0
ENDCHAR

STARTCHAR char75
ENCODING 75
SWIDTH 75 0
DWIDTH 7 0
BBX 7 6 0 0
BITMAP
EE
D0
A0
D0
C8
FE
ENDCHAR

STARTCHAR char76
ENCODING 76
SWIDTH 75 0
DWIDTH 7 0
BBX 6 6 0 0
BITMAP
E0
C0
C0
C0
C0
FC
ENDCHAR

STARTCHAR char77
ENCODING 77
SWIDTH 86 0
DWIDTH 8 0
BBX 9 6 0 0
BITMAP
E300
E700
E500
EB00
DB00
F280
ENDCHAR

STARTCHAR char78
ENCODING 78
SWIDTH 86 0
DWIDTH 8 0
BBX 8 6 0 0
BITMAP
E7
E6
D6
CE
CE
E7
ENDCHAR

STARTCHAR char79
ENCODING 79
SWIDTH 86 0
DWIDTH 8 0
BBX 8 6 0 0
BITMAP
38
46
C3
C3
42
3C
ENDCHAR

STARTCHAR char80
ENCODING 80
SWIDTH 75 0
DWIDTH 7 0
BBX 6 6 0 0
BITMAP
7C
CC
CC
FC
C0
E0
ENDCHAR

STARTCHAR char81
ENCODING 81
SWIDTH 86 0
DWIDTH 8 0
BBX 7 7 0 -1
BITMAP
38
46
C6
C6
D4
7C
04
ENDCHAR

STARTCHAR char82
ENCODING 82
SWIDTH 75 0
DWIDTH 7 0
BBX 8 6 0 0
BITMAP
FC
C6
C6
FE
CC
E7
ENDCHAR

STARTCHAR char83
ENCODING 83
SWIDTH 75 0
DWIDTH 7 0
BBX 8 6 0 0
BITMAP
7F
C4
FC
06
C6
78
ENDCHAR

STARTCHAR char84
ENCODING 84
SWIDTH 75 0
DWIDTH 7 0
BBX 6 6 0 0
BITMAP
FC
20
30
30
30
38
ENDCHAR

STARTCHAR char85
ENCODING 85
SWIDTH 75 0
DWIDTH 7 0
BBX 7 6 0 0
BITMAP
E6
C4
C4
C4
C6
7C
ENDCHAR

STARTCHAR char86
ENCODING 86
SWIDTH 75 0
DWIDTH 7 0
BBX 7 6 0 0
BITMAP
C6
44
48
28
30
38
ENDCHAR

STARTCHAR char87
ENCODING 87
SWIDTH 107 0
DWIDTH 10 0
BBX 10 6 0 0
BITMAP
CCC0
9900
5500
5500
5600
3300
ENDCHAR

STARTCHAR char88
ENCODING 88
SWIDTH 64 0
DWIDTH 6 0
BBX 6 6 0 0
BITMAP
EC
50
30
30
50
CC
ENDCHAR

STARTCHAR char89
ENCODING 89
SWIDTH 64 0
DWIDTH 6 0
BBX 7 6 0 0
BITMAP
CE
48
50
30
30
38
ENDCHAR

STARTCHAR char90
ENCODING 90
SWIDTH 75 0
DWIDTH 7 0
BBX 7 6 0 0
BITMAP
FC
08
10
20
40
FE
ENDCHAR

STARTCHAR char91
ENCODING 91
SWIDTH 32 0
DWIDTH 3 0
BBX 3 6 0 0
BITMAP
C0
C0
C0
C0
C0
E0
ENDCHAR

STARTCHAR char92
ENCODING 92
SWIDTH 21 0
DWIDTH 2 0
BBX 2 6 0 0
BITMAP
80
80
40
40
40
40
ENDCHAR

STARTCHAR char93
ENCODING 93
SWIDTH 32 0
DWIDTH 3 0
BBX 3 6 0 0
BITMAP
E0
60
60
60
60
E0
ENDCHAR

STARTCHAR char94
ENCODING 94
SWIDTH 0 0
DWIDTH 0 0
BBX 2 2 -1 6
BITMAP
40
C0
ENDCHAR

STARTCHAR char95
ENCODING 95
SWIDTH 53 0
DWIDTH 5 0
BBX 5 1 0 -1
BITMAP
F8
ENDCHAR

STARTCHAR char96
ENCODING 96
SWIDTH 0 0
DWIDTH 0 0
BBX 2 1 -1 5
BITMAP
40
ENDCHAR

STARTCHAR char97
ENCODING 97
SWIDTH 64 0
DWIDTH 6 0
BBX 5 5 0 0
BITMAP
30
50
50
78
C8
ENDCHAR

STARTCHAR char98
ENCODING 98
SWIDTH 64 0
DWIDTH 6 0
BBX 6 5 0 0
BITMAP
F8
CC
F8
CC
F8
ENDCHAR

STARTCHAR char99
ENCODING 99
SWIDTH 64 0
DWIDTH 6 0
BBX 6 5 0 0
BITMAP
7C
C0
C0
C4
78
ENDCHAR

STARTCHAR char100
ENCODING 100
SWIDTH 64 0
DWIDTH 6 0
BBX 6 5 0 0
BITMAP
F8
CC
CC
CC
F8
ENDCHAR

STARTCHAR char101
ENCODING 101
SWIDTH 64 0
DWIDTH 6 0
BBX 5 5 0 0
BITMAP
78
80
F0
C0
F8
ENDCHAR

STARTCHAR char102
ENCODING 102
SWIDTH 53 0
DWIDTH 5 0
BBX 5 5 0 0
BITMAP
F8
80
F0
C0
E0
ENDCHAR

STARTCHAR char103
ENCODING 103
SWIDTH 75 0
DWIDTH 7 0
BBX 6 5 0 0
BITMAP
7C
C0
DC
CC
78
ENDCHAR

STARTCHAR char104
ENCODING 104
SWIDTH 64 0
DWIDTH 6 0
BBX 6 5 0 0
BITMAP
CC
CC
FC
CC
E8
ENDCHAR

STARTCHAR char105
ENCODING 105
SWIDTH 21 0
DWIDTH 2 0
BBX 3 5 0 0
BITMAP
E0
C0
C0
C0
E0
ENDCHAR

STARTCHAR char106
ENCODING 106
SWIDTH 53 0
DWIDTH 5 0
BBX 5 5 0 0
BITMAP
18
30
30
30
F0
ENDCHAR

STARTCHAR char107
ENCODING 107
SWIDTH 64 0
DWIDTH 6 0
BBX 6 5 0 0
BITMAP
FC
A0
E0
D0
CC
ENDCHAR

STARTCHAR char108
ENCODING 108
SWIDTH 53 0
DWIDTH 5 0
BBX 5 5 0 0
BITMAP
E0
C0
C0
C0
F8
ENDCHAR

STARTCHAR char109
ENCODING 109
SWIDTH 75 0
DWIDTH 7 0
BBX 7 5 0 0
BITMAP
E6
EC
EC
FC
BE
ENDCHAR

STARTCHAR char110
ENCODING 110
SWIDTH 75 0
DWIDTH 7 0
BBX 7 5 0 0
BITMAP
EA
EC
DC
9C
CA
ENDCHAR

STARTCHAR char111
ENCODING 111
SWIDTH 75 0
DWIDTH 7 0
BBX 7 5 0 0
BITMAP
78
C4
C6
C4
78
ENDCHAR

STARTCHAR char112
ENCODING 112
SWIDTH 64 0
DWIDTH 6 0
BBX 6 5 0 0
BITMAP
FC
CC
FC
C0
A0
ENDCHAR

STARTCHAR char113
ENCODING 113
SWIDTH 75 0
DWIDTH 7 0
BBX 6 6 0 -1
BITMAP
78
CC
CC
CC
70
08
ENDCHAR

STARTCHAR char114
ENCODING 114
SWIDTH 64 0
DWIDTH 6 0
BBX 7 5 0 0
BITMAP
FC
CC
FC
D8
AE
ENDCHAR

STARTCHAR char115
ENCODING 115
SWIDTH 64 0
DWIDTH 6 0
BBX 6 5 0 0
BITMAP
7C
C0
78
CC
F0
ENDCHAR

STARTCHAR char116
ENCODING 116
SWIDTH 53 0
DWIDTH 5 0
BBX 6 5 -1 0
BITMAP
FC
30
30
30
30
ENDCHAR

STARTCHAR char117
ENCODING 117
SWIDTH 75 0
DWIDTH 7 0
BBX 7 5 0 0
BITMAP
CE
CC
CC
CC
7C
ENDCHAR

STARTCHAR char118
ENCODING 118
SWIDTH 64 0
DWIDTH 6 0
BBX 6 5 0 0
BITMAP
CC
48
50
50
30
ENDCHAR

STARTCHAR char119
ENCODING 119
SWIDTH 86 0
DWIDTH 8 0
BBX 8 5 0 0
BITMAP
DB
9A
5A
6C
76
ENDCHAR

STARTCHAR char120
ENCODING 120
SWIDTH 53 0
DWIDTH 5 0
BBX 6 5 0 0
BITMAP
D8
50
20
50
DC
ENDCHAR

STARTCHAR char121
ENCODING 121
SWIDTH 53 0
DWIDTH 5 0
BBX 6 5 0 0
BITMAP
CC
70
20
60
30
ENDCHAR

STARTCHAR char122
ENCODING 122
SWIDTH 53 0
DWIDTH 5 0
BBX 5 5 0 0
BITMAP
F8
10
20
40
F8
ENDCHAR

STARTCHAR char123
ENCODING 123
SWIDTH 32 0
DWIDTH 3 0
BBX 2 8 0 -2
BITMAP
C0
40
40
80
40
C0
C0
C0
ENDCHAR

STARTCHAR char124
ENCODING 124
SWIDTH 21 0
DWIDTH 2 0
BBX 2 6 0 0
BITMAP
C0
C0
C0
C0
C0
C0
ENDCHAR

STARTCHAR char125
ENCODING 125
SWIDTH 32 0
DWIDTH 3 0
BBX 2 8 0 -2
BITMAP
C0
C0
C0
40
C0
40
C0
C0
ENDCHAR

STARTCHAR char126
ENCODING 126
SWIDTH 0 0
DWIDTH 0 0
BBX 4 2 -2 6
BITMAP
F0
A0
ENDCHAR

STARTCHAR char128
ENCODING 128
SWIDTH 86 0
DWIDTH 8 0
BBX 8 6 0 0
BITMAP
1E
62
78
78
43
3C
ENDCHAR

STARTCHAR char130
ENCODING 130
SWIDTH 21 0
DWIDTH 2 0
BBX 2 2 0 -1
BITMAP
C0
40
ENDCHAR

STARTCHAR char131
ENCODING 131
SWIDTH 0 0
DWIDTH 0 0
BBX 2 2 -1 6
BITMAP
40
C0
ENDCHAR

STARTCHAR char132
ENCODING 132
SWIDTH 32 0
DWIDTH 3 0
BBX 3 2 0 -1
BITMAP
E0
60
ENDCHAR

STARTCHAR char133
ENCODING 133
SWIDTH 96 0
DWIDTH 9 0
BBX 7 1 1 0
BITMAP
F6
ENDCHAR

STARTCHAR char134
ENCODING 134
SWIDTH 53 0
DWIDTH 5 0
BBX 4 8 0 -2
BITMAP
60
60
F0
60
60
60
60
20
ENDCHAR

STARTCHAR char136
ENCODING 136
SWIDTH 0 0
DWIDTH 0 0
BBX 3 2 -1 4
BITMAP
C0
E0
ENDCHAR

STARTCHAR char138
ENCODING 138
SWIDTH 86 0
DWIDTH 8 0
BBX 0 0 0 0
BITMAP
ENDCHAR

STARTCHAR char139
ENCODING 139
SWIDTH 32 0
DWIDTH 3 0
BBX 1 3 1 1
BITMAP
80
80
80
ENDCHAR

STARTCHAR char140
ENCODING 140
SWIDTH 107 0
DWIDTH 10 0
BBX 10 6 0 0
BITMAP
3FC0
CC00
CF00
CD00
4800
3F80
ENDCHAR

STARTCHAR char141
ENCODING 141
SWIDTH 86 0
DWIDTH 8 0
BBX 0 0 0 0
BITMAP
ENDCHAR

STARTCHAR char145
ENCODING 145
SWIDTH 21 0
DWIDTH 2 0
BBX 2 2 0 5
BITMAP
40
C0
ENDCHAR

STARTCHAR char146
ENCODING 146
SWIDTH 21 0
DWIDTH 2 0
BBX 2 2 0 4
BITMAP
C0
40
ENDCHAR

STARTCHAR char147
ENCODING 147
SWIDTH 32 0
DWIDTH 3 0
BBX 3 2 0 4
BITMAP
E0
E0
ENDCHAR

STARTCHAR char148
ENCODING 148
SWIDTH 32 0
DWIDTH 3 0
BBX 3 2 0 4
BITMAP
E0
60
ENDCHAR

STARTCHAR char149
ENCODING 149
SWIDTH 32 0
DWIDTH 3 0
BBX 2 2 0 2
BITMAP
C0
C0
ENDCHAR

STARTCHAR char150
ENCODING 150
SWIDTH 75 0
DWIDTH 7 0
BBX 6 1 0 2
BITMAP
FC
ENDCHAR

STARTCHAR char151
ENCODING 151
SWIDTH 64 0
DWIDTH 6 0
BBX 5 1 0 2
BITMAP
F8
ENDCHAR

STARTCHAR char152
ENCODING 152
SWIDTH 0 0
DWIDTH 0 0
BBX 4 1 -2 5
BITMAP
F0
ENDCHAR

STARTCHAR char153
ENCODING 153
SWIDTH 86 0
DWIDTH 8 0
BBX 7 4 0 2
BITMAP
F2
7E
FE
76
ENDCHAR

STARTCHAR char155
ENCODING 155
SWIDTH 32 0
DWIDTH 3 0
BBX 1 3 1 1
BITMAP
80
80
80
ENDCHAR

STARTCHAR char156
ENCODING 156
SWIDTH 86 0
DWIDTH 8 0
BBX 7 5 0 0
BITMAP
7E
D8
DC
D8
7E
ENDCHAR

STARTCHAR char157
ENCODING 157
SWIDTH 86 0
DWIDTH 8 0
BBX 0 0 0 0
BITMAP
ENDCHAR

STARTCHAR char159
ENCODING 159
SWIDTH 64 0
DWIDTH 6 0
BBX 7 7 0 0
BITMAP
38
EE
48
50
30
30
38
ENDCHAR

STARTCHAR char160
ENCODING 160
SWIDTH 43 0
DWIDTH 4 0
BBX 0 0 0 0
BITMAP
ENDCHAR

STARTCHAR char161
ENCODING 161
SWIDTH 21 0
DWIDTH 2 0
BBX 3 6 0 0
BITMAP
C0
00
40
40
C0
A0
ENDCHAR

STARTCHAR char162
ENCODING 162
SWIDTH 64 0
DWIDTH 6 0
BBX 6 7 0 -1
BITMAP
30
78
F0
E0
E4
78
30
ENDCHAR

STARTCHAR char163
ENCODING 163
SWIDTH 75 0
DWIDTH 7 0
BBX 7 6 0 0
BITMAP
7C
C2
C0
F8
C0
FC
ENDCHAR

STARTCHAR char164
ENCODING 164
SWIDTH 0 0
DWIDTH 0 0
BBX 1 2 0 6
BITMAP
80
80
ENDCHAR

STARTCHAR char165
ENCODING 165
SWIDTH 0 0
DWIDTH 0 0
BBX 4 2 -2 6
BITMAP
D0
60
ENDCHAR

STARTCHAR char166
ENCODING 166
SWIDTH 86 0
DWIDTH 8 0
BBX 0 0 0 0
BITMAP
ENDCHAR

STARTCHAR char167
ENCODING 167
SWIDTH 53 0
DWIDTH 5 0
BBX 4 8 0 -2
BITMAP
F0
F0
E0
D0
D0
30
F0
70
ENDCHAR

STARTCHAR char168
ENCODING 168
SWIDTH 0 0
DWIDTH 0 0
BBX 4 1 -2 5
BITMAP
F0
ENDCHAR

STARTCHAR char169
ENCODING 169
SWIDTH 75 0
DWIDTH 7 0
BBX 7 6 0 0
BITMAP
30
74
EC
E6
FC
38
ENDCHAR

STARTCHAR char170
ENCODING 170
SWIDTH 0 0
DWIDTH 0 0
BBX 4 1 -2 6
BITMAP
F0
ENDCHAR

STARTCHAR char171
ENCODING 171
SWIDTH 43 0
DWIDTH 4 0
BBX 2 3 1 1
BITMAP
C0
C0
C0
ENDCHAR

STARTCHAR char172
ENCODING 172
SWIDTH 64 0
DWIDTH 6 0
BBX 2 2 4 0
BITMAP
C0
C0
ENDCHAR

STARTCHAR char174
ENCODING 174
SWIDTH 75 0
DWIDTH 7 0
BBX 7 6 0 0
BITMAP
30
74
FC
F6
FC
78
ENDCHAR

STARTCHAR char176
ENCODING 176
SWIDTH 43 0
DWIDTH 4 0
BBX 4 3 -1 3
BITMAP
20
F0
60
ENDCHAR

STARTCHAR char177
ENCODING 177
SWIDTH 53 0
DWIDTH 5 0
BBX 4 5 0 0
BITMAP
60
F0
60
60
F0
ENDCHAR

STARTCHAR char179
ENCODING 179
SWIDTH 86 0
DWIDTH 8 0
BBX 0 0 0 0
BITMAP
ENDCHAR

STARTCHAR char180
ENCODING 180
SWIDTH 0 0
DWIDTH 0 0
BBX 1 1 0 5
BITMAP
80
ENDCHAR

STARTCHAR char182
ENCODING 182
SWIDTH 64 0
DWIDTH 6 0
BBX 4 7 1 -1
BITMAP
E0
F0
F0
70
70
70
70
ENDCHAR

STARTCHAR char183
ENCODING 183
SWIDTH 21 0
DWIDTH 2 0
BBX 2 1 0 2
BITMAP
C0
ENDCHAR

STARTCHAR char184
ENCODING 184
SWIDTH 0 0
DWIDTH 0 0
BBX 3 2 -1 -2
BITMAP
60
C0
ENDCHAR

STARTCHAR char185
ENCODING 185
SWIDTH 86 0
DWIDTH 8 0
BBX 0 0 0 0
BITMAP
ENDCHAR

STARTCHAR char186
ENCODING 186
SWIDTH 0 0
DWIDTH 0 0
BBX 4 2 -2 6
BITMAP
F0
A0
ENDCHAR

STARTCHAR char187
ENCODING 187
SWIDTH 43 0
DWIDTH 4 0
BBX 3 3 0 1
BITMAP
60
60
60
ENDCHAR

STARTCHAR char189
ENCODING 189
SWIDTH 86 0
DWIDTH 8 0
BBX 0 0 0 0
BITMAP
ENDCHAR

STARTCHAR char191
ENCODING 191
SWIDTH 53 0
DWIDTH 5 0
BBX 4 6 0 0
BITMAP
60
00
60
40
D0
E0
ENDCHAR

STARTCHAR char192
ENCODING 192
SWIDTH 75 0
DWIDTH 7 0
BBX 7 8 0 0
BITMAP
30
10
30
30
28
78
84
C6
ENDCHAR

STARTCHAR char193
ENCODING 193
SWIDTH 75 0
DWIDTH 7 0
BBX 7 8 0 0
BITMAP
10
10
30
30
28
78
84
C6
ENDCHAR

STARTCHAR char194
ENCODING 194
SWIDTH 75 0
DWIDTH 7 0
BBX 7 8 0 0
BITMAP
10
30
30
30
28
78
84
C6
ENDCHAR

STARTCHAR char195
ENCODING 195
SWIDTH 75 0
DWIDTH 7 0
BBX 7 8 0 0
BITMAP
78
50
30
30
28
78
84
C6
ENDCHAR

STARTCHAR char196
ENCODING 196
SWIDTH 75 0
DWIDTH 7 0
BBX 7 6 0 0
BITMAP
FC
30
28
7C
44
CE
ENDCHAR

STARTCHAR char197
ENCODING 197
SWIDTH 75 0
DWIDTH 7 0
BBX 6 8 0 0
BITMAP
78
78
7C
38
28
78
84
C4
ENDCHAR

STARTCHAR char198
ENCODING 198
SWIDTH 107 0
DWIDTH 10 0
BBX 9 6 0 0
BITMAP
1F00
3800
3E00
7900
8800
8F80
ENDCHAR

STARTCHAR char199
ENCODING 199
SWIDTH 86 0
DWIDTH 8 0
BBX 7 7 0 -1
BITMAP
3C
42
C0
C0
C2
3C
18
ENDCHAR

STARTCHAR char200
ENCODING 200
SWIDTH 75 0
DWIDTH 7 0
BBX 6 8 0 0
BITMAP
30
20
FC
80
F8
C8
C0
FC
ENDCHAR

STARTCHAR char201
ENCODING 201
SWIDTH 75 0
DWIDTH 7 0
BBX 6 8 0 0
BITMAP
10
30
FC
80
F8
C8
C0
FC
ENDCHAR

STARTCHAR char202
ENCODING 202
SWIDTH 75 0
DWIDTH 7 0
BBX 6 8 0 0
BITMAP
20
30
FC
80
F8
C8
C0
FC
ENDCHAR

STARTCHAR char203
ENCODING 203
SWIDTH 75 0
DWIDTH 7 0
BBX 6 7 0 0
BITMAP
58
FC
80
F8
C8
C0
FC
ENDCHAR

STARTCHAR char204
ENCODING 204
SWIDTH 21 0
DWIDTH 2 0
BBX 3 8 0 0
BITMAP
C0
C0
C0
C0
C0
C0
C0
E0
ENDCHAR

STARTCHAR char205
ENCODING 205
SWIDTH 21 0
DWIDTH 2 0
BBX 3 8 0 0
BITMAP
C0
60
C0
C0
C0
C0
C0
E0
ENDCHAR

STARTCHAR char206
ENCODING 206
SWIDTH 21 0
DWIDTH 2 0
BBX 4 8 -1 0
BITMAP
60
60
60
60
60
60
60
70
ENDCHAR

STARTCHAR char207
ENCODING 207
SWIDTH 21 0
DWIDTH 2 0
BBX 4 7 -1 0
BITMAP
F0
60
60
60
60
60
70
ENDCHAR

STARTCHAR char209
ENCODING 209
SWIDTH 86 0
DWIDTH 8 0
BBX 8 8 0 0
BITMAP
38
50
C6
E6
D6
CE
CE
E7
ENDCHAR

STARTCHAR char210
ENCODING 210
SWIDTH 86 0
DWIDTH 8 0
BBX 8 8 0 0
BITMAP
30
10
38
46
C3
C3
42
3C
ENDCHAR

STARTCHAR char211
ENCODING 211
SWIDTH 86 0
DWIDTH 8 0
BBX 8 8 0 0
BITMAP
08
18
38
46
C3
C3
42
3C
ENDCHAR

STARTCHAR char212
ENCODING 212
SWIDTH 86 0
DWIDTH 8 0
BBX 8 8 0 0
BITMAP
18
28
38
46
C3
C3
42
3C
ENDCHAR

STARTCHAR char213
ENCODING 213
SWIDTH 86 0
DWIDTH 8 0
BBX 8 8 0 0
BITMAP
3C
28
38
46
C3
C3
42
3C
ENDCHAR

STARTCHAR char214
ENCODING 214
SWIDTH 86 0
DWIDTH 8 0
BBX 8 6 0 0
BITMAP
BB
C6
C3
C3
42
3C
ENDCHAR

STARTCHAR char216
ENCODING 216
SWIDTH 86 0
DWIDTH 8 0
BBX 8 6 0 0
BITMAP
3F
46
DB
F3
C2
BC
ENDCHAR

STARTCHAR char217
ENCODING 217
SWIDTH 75 0
DWIDTH 7 0
BBX 7 8 0 0
BITMAP
20
10
C4
C4
C4
C4
C6
7C
ENDCHAR

STARTCHAR char218
ENCODING 218
SWIDTH 75 0
DWIDTH 7 0
BBX 7 8 0 0
BITMAP
10
10
C4
C4
C4
C4
C6
7C
ENDCHAR

STARTCHAR char219
ENCODING 219
SWIDTH 75 0
DWIDTH 7 0
BBX 7 8 0 0
BITMAP
10
28
C4
C4
C4
C4
C6
7C
ENDCHAR

STARTCHAR char220
ENCODING 220
SWIDTH 75 0
DWIDTH 7 0
BBX 7 6 0 0
BITMAP
FC
C6
C6
C6
C6
7C
ENDCHAR

STARTCHAR char222
ENCODING 222
SWIDTH 86 0
DWIDTH 8 0
BBX 0 0 0 0
BITMAP
ENDCHAR

STARTCHAR char223
ENCODING 223
SWIDTH 9 0
DWIDTH 11 0
BBX 12 5 0 0
BITMAP
7FF0
C600
7BC0
CE60
F7C0
ENDCHAR

STARTCHAR char224
ENCODING 224
SWIDTH 64 0
DWIDTH 6 0
BBX 5 6 0 0
BITMAP
20
20
50
50
78
C8
ENDCHAR

STARTCHAR char225
ENCODING 225
SWIDTH 64 0
DWIDTH 6 0
BBX 5 6 0 0
BITMAP
20
20
50
50
78
C8
ENDCHAR

STARTCHAR char226
ENCODING 226
SWIDTH 64 0
DWIDTH 6 0
BBX 5 7 0 0
BITMAP
30
70
20
50
50
78
C8
ENDCHAR

STARTCHAR char227
ENCODING 227
SWIDTH 64 0
DWIDTH 6 0
BBX 5 6 0 0
BITMAP
70
20
50
50
78
C8
ENDCHAR

STARTCHAR char228
ENCODING 228
SWIDTH 64 0
DWIDTH 6 0
BBX 5 6 0 0
BITMAP
70
20
50
70
78
C8
ENDCHAR

STARTCHAR char229
ENCODING 229
SWIDTH 64 0
DWIDTH 6 0
BBX 5 7 0 0
BITMAP
70
70
78
50
50
78
C8
ENDCHAR

STARTCHAR char230
ENCODING 230
SWIDTH 86 0
DWIDTH 8 0
BBX 7 5 0 0
BITMAP
3E
60
7E
E0
FE
ENDCHAR

STARTCHAR char231
ENCODING 231
SWIDTH 64 0
DWIDTH 6 0
BBX 6 7 0 -2
BITMAP
7C
C0
C0
CC
70
30
30
ENDCHAR

STARTCHAR char232
ENCODING 232
SWIDTH 64 0
DWIDTH 6 0
BBX 5 6 0 0
BITMAP
20
78
80
F0
C0
F8
ENDCHAR

STARTCHAR char233
ENCODING 233
SWIDTH 64 0
DWIDTH 6 0
BBX 5 6 0 0
BITMAP
20
78
80
F0
C0
F8
ENDCHAR

STARTCHAR char234
ENCODING 234
SWIDTH 64 0
DWIDTH 6 0
BBX 5 7 0 0
BITMAP
20
50
78
80
F0
C0
F8
ENDCHAR

STARTCHAR char235
ENCODING 235
SWIDTH 64 0
DWIDTH 6 0
BBX 5 6 0 0
BITMAP
70
78
40
70
40
F8
ENDCHAR

STARTCHAR char236
ENCODING 236
SWIDTH 21 0
DWIDTH 2 0
BBX 3 6 0 0
BITMAP
C0
C0
C0
C0
C0
E0
ENDCHAR

STARTCHAR char237
ENCODING 237
SWIDTH 21 0
DWIDTH 2 0
BBX 3 6 0 0
BITMAP
C0
C0
C0
C0
C0
E0
ENDCHAR

STARTCHAR char238
ENCODING 238
SWIDTH 21 0
DWIDTH 2 0
BBX 4 7 0 0
BITMAP
C0
F0
C0
C0
C0
C0
E0
ENDCHAR

STARTCHAR char239
ENCODING 239
SWIDTH 21 0
DWIDTH 2 0
BBX 4 6 -1 0
BITMAP
F0
60
60
60
60
70
ENDCHAR

STARTCHAR char241
ENCODING 241
SWIDTH 75 0
DWIDTH 7 0
BBX 7 6 0 0
BITMAP
78
CC
EC
DC
9C
CA
ENDCHAR

STARTCHAR char242
ENCODING 242
SWIDTH 75 0
DWIDTH 7 0
BBX 7 6 0 0
BITMAP
10
78
C4
C6
C4
78
ENDCHAR

STARTCHAR char243
ENCODING 243
SWIDTH 75 0
DWIDTH 7 0
BBX 7 6 0 0
BITMAP
10
78
C4
C6
C4
78
ENDCHAR

STARTCHAR char244
ENCODING 244
SWIDTH 75 0
DWIDTH 7 0
BBX 7 6 0 0
BITMAP
30
78
C4
C6
C4
78
ENDCHAR

STARTCHAR char245
ENCODING 245
SWIDTH 75 0
DWIDTH 7 0
BBX 7 6 0 0
BITMAP
78
78
C4
C6
C4
78
ENDCHAR

STARTCHAR char246
ENCODING 246
SWIDTH 75 0
DWIDTH 7 0
BBX 7 6 0 0
BITMAP
68
78
C4
C6
C4
78
ENDCHAR

STARTCHAR char247
ENCODING 247
SWIDTH 53 0
DWIDTH 5 0
BBX 4 3 0 1
BITMAP
60
F0
60
ENDCHAR

STARTCHAR char248
ENCODING 248
SWIDTH 75 0
DWIDTH 7 0
BBX 7 5 0 0
BITMAP
7C
DE
F6
A4
F8
ENDCHAR

STARTCHAR char249
ENCODING 249
SWIDTH 75 0
DWIDTH 7 0
BBX 6 6 0 0
BITMAP
20
C4
CC
CC
CC
7C
ENDCHAR

STARTCHAR char250
ENCODING 250
SWIDTH 75 0
DWIDTH 7 0
BBX 6 6 0 0
BITMAP
10
C4
CC
CC
CC
7C
ENDCHAR

STARTCHAR char251
ENCODING 251
SWIDTH 75 0
DWIDTH 7 0
BBX 6 7 0 0
BITMAP
30
70
C4
CC
CC
CC
7C
ENDCHAR

STARTCHAR char252
ENCODING 252
SWIDTH 75 0
DWIDTH 7 0
BBX 6 6 0 0
BITMAP
78
C4
CC
CC
CC
78
ENDCHAR

STARTCHAR char255
ENCODING 255
SWIDTH 53 0
DWIDTH 5 0
BBX 5 6 0 0
BITMAP
F0
88
50
20
20
70
ENDCHAR
ENDFONT
